<?xml version="1.0" standalone="no"?>
<!DOCTYPE svg PUBLIC "-//W3C//DTD SVG 20010904//EN"
 "http://www.w3.org/TR/2001/REC-SVG-20010904/DTD/svg10.dtd">
<svg version="1.0" xmlns="http://www.w3.org/2000/svg"
 width="500.000000pt" height="500.000000pt" viewBox="0 0 500.000000 500.000000"
 preserveAspectRatio="xMidYMid meet">
<metadata>
Created by potrace 1.16, written by Peter Selinger 2001-2019
</metadata>
<g transform="translate(0.000000,500.000000) scale(0.100000,-0.100000)"
fill="#000000" stroke="none">
<path d="M839 2865 c-99 -52 -148 -146 -129 -248 11 -57 20 -74 57 -109 33
-31 137 -88 162 -88 24 0 166 -56 217 -86 47 -28 94 -77 94 -100 0 -20 -46
-47 -69 -39 -10 3 -52 40 -93 81 -92 95 -133 118 -204 112 -103 -9 -163 -86
-164 -210 0 -70 13 -91 25 -38 14 62 58 64 167 8 72 -38 87 -42 152 -42 84 -1
133 21 189 83 72 80 81 189 22 267 -48 62 -105 92 -327 169 -43 15 -96 40
-118 56 -58 42 -67 99 -18 118 32 12 64 -9 118 -79 62 -81 110 -110 177 -110
126 0 193 91 184 253 -1 35 -17 35 -26 0 -4 -16 -11 -34 -17 -40 -20 -24 -75
-14 -140 25 -55 33 -71 37 -138 40 -64 2 -82 -2 -121 -23z"/>
<path d="M1572 2856 c-14 -38 -37 -50 -121 -66 -96 -18 -91 2 -91 -362 l0
-318 125 0 125 0 0 268 c0 199 3 273 13 285 20 27 69 32 97 9 24 -19 25 -25
24 -129 0 -59 -3 -153 -5 -208 -3 -87 -1 -105 17 -140 30 -57 75 -85 139 -85
64 0 104 13 175 58 34 22 58 31 66 26 91 -69 145 -87 264 -86 92 1 151 17 213
58 l37 24 0 -40 0 -40 125 0 125 0 0 315 c0 300 -1 316 -20 335 -11 11 -30 22
-42 24 -106 22 -130 30 -143 49 -8 12 -15 29 -15 39 0 10 -7 18 -15 18 -13 0
-15 -45 -17 -327 l-3 -326 -38 -20 c-55 -28 -128 -26 -175 6 -52 35 -89 72
-118 118 -28 46 -26 55 18 64 51 12 150 60 193 94 100 81 101 161 2 213 -35
19 -58 23 -142 23 -89 0 -106 -3 -155 -27 -81 -40 -125 -81 -156 -146 -39 -80
-40 -191 -2 -274 14 -31 24 -59 20 -62 -15 -16 -62 -4 -81 20 -19 25 -21 38
-18 173 2 133 0 149 -20 186 -43 81 -103 118 -209 130 -50 6 -69 4 -108 -13
-25 -12 -46 -18 -47 -14 0 4 -1 45 -2 91 -2 91 -15 112 -35 57z m750 -184 c68
-45 98 -133 63 -186 -18 -27 -82 -66 -107 -66 -20 0 -78 125 -85 179 -4 38 -1
50 16 69 27 27 75 29 113 4z"/>
<path d="M3170 2866 c0 -34 -41 -64 -98 -72 -64 -9 -109 -31 -116 -57 -3 -12
-6 -158 -6 -324 0 -256 2 -303 14 -303 8 0 17 9 21 20 3 10 20 31 37 46 27 22
38 25 72 20 23 -4 68 -23 101 -44 81 -49 167 -56 247 -20 167 77 240 269 162
432 -12 28 -21 53 -18 58 12 19 63 7 84 -19 19 -25 20 -37 18 -172 -3 -134 -1
-149 19 -186 43 -81 107 -121 212 -131 66 -7 116 5 175 43 l39 25 -6 -43 c-16
-108 -55 -171 -114 -182 -36 -7 -52 2 -115 67 -59 60 -96 73 -172 62 -35 -6
-53 -16 -80 -46 -40 -45 -56 -92 -56 -172 0 -64 11 -75 25 -26 7 23 19 36 38
43 31 10 45 4 111 -49 77 -61 189 -36 278 63 92 102 194 350 234 566 18 100
15 234 -6 259 -10 13 -39 16 -168 16 l-156 0 31 -32 c78 -83 124 -200 131
-333 5 -111 -8 -165 -49 -199 -41 -34 -92 -35 -114 -2 -20 30 -21 118 -4 263
6 60 9 129 5 154 -14 94 -74 149 -161 149 -72 0 -117 -15 -176 -60 l-53 -39
-33 25 c-82 63 -203 88 -280 60 l-43 -15 0 89 c0 73 -3 90 -15 90 -9 0 -15 -9
-15 -24z m103 -177 c71 -39 141 -193 156 -344 12 -131 -15 -188 -93 -193 -39
-3 -54 2 -84 24 -20 16 -40 33 -44 38 -4 6 -8 108 -8 226 0 179 3 219 16 238
17 25 26 27 57 11z"/>
<path d="M2517 1793 c-11 -19 -118 -565 -113 -578 8 -22 63 -19 70 3 19 60
115 554 110 567 -6 15 -59 21 -67 8z"/>
<path d="M2112 1627 c-61 -63 -112 -120 -112 -128 0 -20 229 -239 251 -239 25
0 43 35 30 59 -6 10 -50 56 -98 100 l-87 81 99 100 c85 85 98 103 89 118 -6 9
-22 18 -35 20 -19 2 -47 -20 -137 -111z"/>
<path d="M2727 1733 c-21 -20 0 -55 85 -140 l93 -93 -94 -94 c-73 -74 -92 -98
-89 -117 2 -16 11 -25 27 -27 19 -3 47 19 137 109 63 63 114 121 114 129 0 8
-51 66 -113 128 -105 104 -139 127 -160 105z"/>
</g>
</svg>
